HIERARCHY
ROOT Hips
{
	OFFSET 48.051498 -13.232913 84.180000
	CHANNELS 6 Xposition Yposition Zposition Xrotation Yrotation Zrotation
	JOINT spine
	{
		OFFSET 0.000000 -0.359108 6.244789
		CHANNELS 3 Xrotation Yrotation Zrotation
		JOINT spine1
		{
			OFFSET 0.000000 -0.000002 9.069412
			CHANNELS 3 Xrotation Yrotation Zrotation
			JOINT spine2
			{
				OFFSET 0.000000 -0.000001 8.690140
				CHANNELS 3 Xrotation Yrotation Zrotation
				JOINT Neck
				{
					OFFSET 0.000000 -1.063724 22.311203
					CHANNELS 3 Xrotation Yrotation Zrotation
					JOINT Head
					{
						OFFSET 0.000000 -0.000001 6.740814
						CHANNELS 3 Xrotation Yrotation Zrotation
						End Site
						{
							OFFSET 0.000000 5.380967 16.316498
						}
					}
				}
				JOINT RightShoulder
				{
					OFFSET -3.659161 0.509512 9.384682
					CHANNELS 3 Xrotation Yrotation Zrotation
					JOINT RightArm
					{
						OFFSET 0.000000 -0.000002 12.308907
						CHANNELS 3 Xrotation Yrotation Zrotation
						JOINT RightArmRoll
						{
							OFFSET 0.000000 -0.000001 6.213745
							CHANNELS 3 Xrotation Yrotation Zrotation
							JOINT RightForeArm
							{
								OFFSET 0.000000 -0.000003 18.098495
								CHANNELS 3 Xrotation Yrotation Zrotation
								JOINT RightForeArmRoll
								{
									OFFSET 0.000000 -0.000002 6.972794
									CHANNELS 3 Xrotation Yrotation Zrotation
									JOINT RightHand
									{
										OFFSET 0.000000 -0.000002 13.992905
										CHANNELS 3 Xrotation Yrotation Zrotation
										End Site
										{
											OFFSET 0.000000 0.000000 0.100006
										}
									}
								}
							}
						}
					}
				}
				JOINT LeftShoulder
				{
					OFFSET 3.659161 0.509512 9.384682
					CHANNELS 3 Xrotation Yrotation Zrotation
					JOINT LeftArm
					{
						OFFSET 0.000000 -0.000002 12.308907
						CHANNELS 3 Xrotation Yrotation Zrotation
						JOINT LeftArmRoll
						{
							OFFSET 0.000000 -0.000001 6.213745
							CHANNELS 3 Xrotation Yrotation Zrotation
							JOINT LeftForeArm
							{
								OFFSET 0.000000 -0.000003 18.098495
								CHANNELS 3 Xrotation Yrotation Zrotation
								JOINT LeftForeArmRoll
								{
									OFFSET 0.000000 -0.000002 6.972794
									CHANNELS 3 Xrotation Yrotation Zrotation
									JOINT LeftHand
									{
										OFFSET 0.000000 -0.000002 13.992905
										CHANNELS 3 Xrotation Yrotation Zrotation
										End Site
										{
											OFFSET 0.000000 0.000000 0.100006
										}
									}
								}
							}
						}
					}
				}
			}
		}
	}
	JOINT RightUpLeg
	{
		OFFSET -5.535149 0.851454 -1.014999
		CHANNELS 3 Xrotation Yrotation Zrotation
		JOINT RightUpLegRoll
		{
			OFFSET 0.000000 -0.000003 16.407501
			CHANNELS 3 Xrotation Yrotation Zrotation
			JOINT RightLeg
			{
				OFFSET 0.000000 0.000003 -20.318100
				CHANNELS 3 Xrotation Yrotation Zrotation
				JOINT RightLegRoll
				{
					OFFSET 0.000000 -0.000003 20.384598
					CHANNELS 3 Xrotation Yrotation Zrotation
					JOINT RightFoot
					{
						OFFSET 0.000000 -0.000003 16.966805
						CHANNELS 3 Xrotation Yrotation Zrotation
						JOINT RightToeBase
						{
							OFFSET 0.000000 -0.000002 14.183395
							CHANNELS 3 Xrotation Yrotation Zrotation
							End Site
							{
								OFFSET 0.006012 0.791744 6.868896
							}
						}
					}
				}
			}
		}
	}
	JOINT LeftUpLeg
	{
		OFFSET 5.535149 0.851454 -1.014999
		CHANNELS 3 Xrotation Yrotation Zrotation
		JOINT LeftUpLegRoll
		{
			OFFSET 0.000000 -0.000003 16.407600
			CHANNELS 3 Xrotation Yrotation Zrotation
			JOINT LeftLeg
			{
				OFFSET 0.000000 -0.000003 20.318100
				CHANNELS 3 Xrotation Yrotation Zrotation
				JOINT LeftLegRoll
				{
					OFFSET 0.000000 -0.000004 20.573105
					CHANNELS 3 Xrotation Yrotation Zrotation
					JOINT LeftFoot
					{
						OFFSET 0.000000 -0.000003 16.778305
						CHANNELS 3 Xrotation Yrotation Zrotation
						JOINT LeftToeBase
						{
							OFFSET 0.000000 -0.000002 14.183395
							CHANNELS 3 Xrotation Yrotation Zrotation
							End Site
							{
								OFFSET -0.026943 0.791745 6.868896
							}
						}
					}
				}
			}
		}
	}
}
MOTION
Frames: 12
Frame Time: 0.041667
47.568104 -14.432812 84.126610 -1.910880 0.258700 -4.604859 -1.541209 0.357762 0.056462 0.913849 0.717729 0.127213 2.558972 0.719183 0.118615 13.105250 -6.944804 0.489824 -1.521193 1.928431 1.046496 -5.002753 -66.752395 -6.543990 -51.622017 -136.461674 -99.385277 0.000006 0.000002 -0.000005 95.418125 2.413730 -10.447222 -0.000006 0.000005 -2.999998 -5.000006 -7.999973 -0.000006 -14.780763 57.843076 17.412623 -40.891035 131.181501 95.242719 -0.000006 0.000001 0.000005 89.804318 -0.039837 8.521487 -0.000001 -0.000000 3.000007 -4.999873 8.000033 0.000002 -5.066564 -176.192885 0.514767 -179.999991 0.000005 -0.859000 168.082773 -0.267113 -1.139376 -0.000002 0.000003 0.072531 69.689048 5.483072 5.794088 25.456957 -7.355625 0.000035 1.632441 176.070597 -3.620147 -0.000005 0.000011 -1.113160 -11.617515 1.515088 0.907598 -0.000002 -0.000003 -0.383591 75.479294 -6.743803 -2.069534 25.480540 7.354828 -0.022093 
47.570499 -14.434614 84.124008 -1.905839 0.260519 -4.603341 -1.542389 0.356801 0.057906 0.911994 0.715377 0.129620 2.557120 0.716858 0.121053 13.096282 -6.909271 0.482853 -1.485487 1.900362 1.038025 -4.940961 -66.742409 -6.473234 -51.637699 -136.376625 -99.160796 0.000002 0.000001 -0.000005 95.394308 2.390908 -10.404651 -0.000007 -0.000001 -3.000000 -5.000005 -7.999972 -0.000004 -14.825887 57.833322 17.466371 -40.902222 131.176597 95.086513 -0.000007 -0.000001 0.000005 89.824644 -0.071311 8.544590 -0.000003 -0.000000 3.000007 -4.999873 8.000031 0.000003 -5.075327 -176.200904 0.503144 -179.999991 0.000005 -0.859000 168.075082 -0.255371 -1.139925 -0.000001 0.000003 0.072519 69.689369 5.481100 5.799316 25.456953 -7.355623 0.000035 1.623098 176.066567 -3.621359 -0.000005 0.000011 -1.112840 -11.625828 1.516551 0.907805 -0.000003 -0.000003 -0.383694 75.486609 -6.744074 -2.069133 25.478322 7.354828 -0.020056 
47.576099 -14.419110 84.115990 -1.901011 0.262360 -4.601831 -1.543530 0.355889 0.059371 0.910258 0.713087 0.132019 2.555378 0.714592 0.123481 13.085642 -6.874817 0.475860 -1.446544 1.874503 1.029537 -4.879129 -66.733714 -6.402540 -51.652851 -136.294376 -98.926513 0.000006 0.000000 -0.000006 95.369590 2.366362 -10.358986 -0.000005 0.000001 -3.000001 -5.000009 -7.999971 -0.000005 -14.870457 57.823343 17.519428 -40.915855 131.176010 94.926659 -0.000006 0.000001 0.000006 89.842567 -0.101636 8.565558 -0.000002 0.000001 3.000007 -4.999872 8.000036 -0.000000 -5.084093 -176.209933 0.491180 -179.999991 0.000005 -0.859000 168.066804 -0.242640 -1.139282 -0.000002 0.000003 0.072509 69.689663 5.479028 5.804730 25.456957 -7.355625 0.000034 1.613913 176.063562 -3.622662 -0.000005 0.000011 -1.112510 -11.634338 1.518130 0.908012 -0.000003 -0.000003 -0.383808 75.494327 -6.744281 -2.068596 25.476001 7.354823 -0.017889 
47.577599 -14.422415 84.120895 -1.896381 0.264203 -4.600281 -1.544647 0.355016 0.060843 0.908609 0.710850 0.134387 2.553738 0.712380 0.125878 13.074127 -6.841386 0.468976 -1.405455 1.850773 1.021143 -4.817202 -66.726495 -6.331868 -51.669206 -136.213862 -98.685756 0.000005 -0.000002 -0.000005 95.344305 2.340286 -10.312244 -0.000006 0.000000 -3.000001 -5.000005 -7.999972 -0.000003 -14.913976 57.813248 17.571239 -40.933221 131.178072 94.764982 -0.000005 -0.000001 0.000003 89.858857 -0.131028 8.584432 -0.000002 0.000003 3.000012 -4.999873 8.000032 -0.000003 -5.092775 -176.217938 0.478880 -179.999991 0.000005 -0.859000 168.058198 -0.230898 -1.139828 -0.000001 0.000004 0.072501 69.689964 5.476951 5.810243 25.456959 -7.355625 0.000034 1.604899 176.059546 -3.624086 -0.000005 0.000011 -1.112180 -11.642750 1.519770 0.908211 -0.000003 -0.000003 -0.383925 75.501983 -6.744549 -2.068172 25.473474 7.354830 -0.015638 
47.572701 -14.437609 84.124496 -1.891930 0.266030 -4.598652 -1.545751 0.354177 0.062298 0.907008 0.708659 0.136699 2.552136 0.710214 0.128219 13.062244 -6.808946 0.462328 -1.363318 1.829123 1.012948 -4.755188 -66.720962 -6.261224 -51.685343 -136.136380 -98.437608 0.000007 -0.000001 -0.000007 95.318971 2.313247 -10.263461 -0.000007 0.000000 -3.000000 -5.000007 -7.999969 0.000000 -14.956067 57.803413 17.621359 -40.952674 131.184261 94.599493 -0.000005 0.000001 0.000005 89.874429 -0.159611 8.601927 -0.000002 -0.000000 3.000010 -4.999874 8.000035 -0.000000 -5.101280 -176.225970 0.466529 -179.999991 0.000005 -0.859000 168.049619 -0.218168 -1.139178 -0.000002 0.000003 0.072495 69.690244 5.474842 5.815754 25.456960 -7.355624 0.000034 1.596070 176.056527 -3.625522 -0.000005 0.000010 -1.111850 -11.651062 1.521448 0.908409 -0.000004 -0.000003 -0.384039 75.509585 -6.744737 -2.067840 25.471054 7.354826 -0.013366 
47.574699 -14.431515 84.124298 -1.887647 0.267824 -4.596912 -1.546858 0.353362 0.063722 0.905417 0.706510 0.138931 2.550545 0.708087 0.130478 13.050995 -6.777443 0.456078 -1.321220 1.809499 1.005062 -4.692944 -66.717117 -6.190484 -51.703938 -136.060333 -98.186831 0.000005 -0.000002 -0.000004 95.293700 2.285433 -10.213661 -0.000008 -0.000000 -3.000001 -5.000004 -7.999974 -0.000003 -14.996341 57.794185 17.669317 -40.977143 131.191582 94.434093 -0.000004 -0.000001 0.000004 89.890043 -0.187631 8.618215 -0.000001 0.000002 3.000010 -4.999875 8.000033 -0.000002 -5.109503 -176.234973 0.454397 -179.999991 0.000005 -0.859001 168.041218 -0.205438 -1.139507 -0.000002 0.000003 0.072491 69.690442 5.472795 5.821174 25.456957 -7.355623 0.000034 1.587451 176.052511 -3.626980 -0.000005 0.000011 -1.111520 -11.659077 1.523098 0.908601 -0.000004 -0.000003 -0.384145 75.516955 -6.744884 -2.067519 25.468616 7.354825 -0.011126 
47.574902 -14.422812 84.120598 -1.883530 0.269563 -4.595025 -1.547967 0.352564 0.065092 0.903802 0.704394 0.141058 2.548934 0.705994 0.132632 13.040988 -6.746837 0.450351 -1.280256 1.791843 0.997584 -4.630460 -66.715252 -6.119652 -51.724425 -135.986485 -97.933486 0.000004 -0.000003 -0.000006 95.268920 2.257170 -10.163866 -0.000009 0.000004 -3.000001 -5.000006 -7.999971 -0.000002 -15.034334 57.785729 17.714570 -41.004819 131.201336 94.266788 -0.000005 -0.000002 0.000003 89.906566 -0.215178 8.633920 -0.000004 -0.000001 3.000011 -4.999873 8.000035 -0.000004 -5.117363 -176.242991 0.442502 -179.999991 0.000005 -0.859001 168.033131 -0.192724 -1.139848 -0.000002 0.000003 0.072490 69.690578 5.470911 5.826129 25.456960 -7.355625 0.000036 1.579060 176.048508 -3.628401 -0.000005 0.000011 -1.111190 -11.666690 1.524692 0.908789 -0.000002 -0.000003 -0.384235 75.523744 -6.744984 -2.067524 25.466200 7.354825 -0.008947 
47.574100 -14.423815 84.120499 -1.879570 0.271231 -4.592939 -1.549111 0.351775 0.066389 0.902127 0.702305 0.143054 2.547262 0.703927 0.134655 13.032821 -6.717088 0.445256 -1.241509 1.776094 0.990620 -4.567652 -66.715389 -6.048638 -51.747047 -135.914972 -97.678829 0.000005 -0.000001 -0.000008 95.244953 2.228904 -10.113099 -0.000009 0.000000 -3.000001 -5.000004 -7.999976 -0.000002 -15.069597 57.778305 17.756591 -41.038041 131.211363 94.100705 -0.000005 -0.000002 0.000004 89.924775 -0.242476 8.649342 -0.000001 0.000005 3.000010 -4.999873 8.000036 -0.000001 -5.124774 -176.250996 0.431115 -179.999991 0.000006 -0.859001 168.025741 -0.180972 -1.139376 -0.000002 0.000004 0.072492 69.690626 5.469119 5.830806 25.456960 -7.355624 0.000035 1.570893 176.045489 -3.629712 -0.000005 0.000011 -1.110870 -11.673799 1.526161 0.908968 -0.000003 -0.000003 -0.384304 75.529953 -6.745014 -2.067657 25.463975 7.354824 -0.006899 
47.574699 -14.434212 84.125908 -1.875740 0.272809 -4.590616 -1.550278 0.350988 0.067596 0.900354 0.700237 0.144897 2.545491 0.701879 0.136522 13.027397 -6.688150 0.440944 -1.206077 1.762210 0.984273 -4.504491 -66.717711 -5.977415 -51.773804 -135.844895 -97.426604 0.000003 -0.000002 -0.000006 95.222133 2.200903 -10.062374 -0.000010 -0.000000 -3.000002 -5.000007 -7.999973 -0.000003 -15.101772 57.772267 17.794946 -41.077208 131.220706 93.936500 -0.000006 -0.000001 0.000003 89.945511 -0.269838 8.664976 0.000000 0.000001 3.000009 -4.999873 8.000038 0.000002 -5.131630 -176.259015 0.420428 -179.999991 0.000005 -0.859001 168.019238 -0.170210 -1.139121 -0.000002 0.000004 0.072498 69.690640 5.467557 5.834926 25.456959 -7.355625 0.000036 1.562993 176.041473 -3.630916 -0.000005 0.000011 -1.110570 -11.680308 1.527477 0.909142 -0.000003 -0.000003 -0.384344 75.535335 -6.744934 -2.068025 25.461951 7.354830 -0.005026 
47.572300 -14.430614 84.125702 -1.872038 0.274277 -4.588025 -1.551497 0.350197 0.068691 0.898449 0.698183 0.146561 2.543580 0.699844 0.138211 13.025430 -6.659967 0.437552 -1.175070 1.750122 0.978645 -4.440869 -66.722322 -5.905900 -51.803423 -135.777617 -97.175792 0.000005 -0.000002 -0.000003 95.200768 2.173406 -10.013729 -0.000007 0.000002 -3.000003 -5.000004 -7.999968 -0.000002 -15.130428 57.767855 17.829121 -41.121629 131.230214 93.773518 -0.000005 -0.000001 0.000003 89.969622 -0.297139 8.681125 -0.000000 0.000004 3.000011 -4.999876 8.000038 0.000001 -5.137851 -176.266009 0.410542 -179.999991 0.000005 -0.859001 168.013747 -0.159450 -1.138850 -0.000002 0.000003 0.072507 69.690503 5.466227 5.838490 25.456959 -7.355625 0.000035 1.555353 176.038468 -3.631928 -0.000005 0.000011 -1.110270 -11.686017 1.528581 0.909306 -0.000004 -0.000003 -0.384351 75.539679 -6.744749 -2.068741 25.460135 7.354821 -0.003368 
47.568298 -14.424109 84.103302 -1.868449 0.275619 -4.585119 -1.552777 0.349390 0.069659 0.896372 0.696137 0.148021 2.541509 0.697815 0.139693 13.027510 -6.632527 0.435193 -1.149547 1.739780 0.973835 -4.376718 -66.729329 -5.834014 -51.838694 -135.711638 -96.931251 0.000006 0.000001 -0.000009 95.181213 2.146950 -9.966145 -0.000011 -0.000001 -3.000001 -5.000004 -7.999974 -0.000001 -15.155186 57.765444 17.858689 -41.173357 131.237522 93.614491 -0.000006 0.000000 0.000004 89.997906 -0.324877 8.698401 -0.000002 0.000002 3.000010 -4.999873 8.000036 0.000000 -5.143336 -176.272033 0.401641 -179.999991 0.000005 -0.859001 168.009567 -0.150643 -1.138999 -0.000002 0.000003 0.072521 69.690333 5.465160 5.841210 25.456959 -7.355624 0.000035 1.548011 176.035449 -3.632723 -0.000005 0.000011 -1.110000 -11.690922 1.529436 0.909464 -0.000004 -0.000003 -0.384316 75.542855 -6.744430 -2.069709 25.458617 7.354824 -0.001990 
47.571701 -14.425212 84.104599 -1.864970 0.276814 -4.581857 -1.554117 0.348561 0.070477 0.894090 0.694091 0.149252 2.539228 0.695786 0.140947 13.034543 -6.605753 0.434007 -1.130617 1.731132 0.969947 -4.311998 -66.738926 -5.761743 -51.879279 -135.647844 -96.693185 0.000004 -0.000001 -0.000007 95.163769 2.121752 -9.919684 -0.000010 0.000000 -3.000003 -5.000006 -7.999971 -0.000001 -15.175599 57.765280 17.883112 -41.231455 131.243355 93.458387 -0.000004 -0.000000 0.000004 90.031216 -0.352901 8.717094 -0.000004 -0.000002 3.000010 -4.999872 8.000035 0.000001 -5.147993 -176.278030 0.394005 -179.999991 0.000005 -0.859001 168.006862 -0.143786 -1.139543 -0.000002 0.000003 0.072540 69.689943 5.464482 5.843108 25.456959 -7.355625 0.000035 1.540968 176.032416 -3.633257 -0.000005 0.000011 -1.109740 -11.694726 1.530002 0.909612 -0.000003 -0.000003 -0.384235 75.544652 -6.744008 -2.070950 25.457503 7.354826 -0.000939 
